<?xml version="1.0" standalone="no"?>
<!DOCTYPE svg PUBLIC "-//W3C//DTD SVG 20010904//EN"
 "http://www.w3.org/TR/2001/REC-SVG-20010904/DTD/svg10.dtd">
<svg version="1.0" xmlns="http://www.w3.org/2000/svg"
 width="720.000000pt" height="720.000000pt" viewBox="0 0 720.000000 720.000000"
 preserveAspectRatio="xMidYMid meet">
<metadata>
Created by potrace 1.16, written by Peter Selinger 2001-2019
</metadata>
<g transform="translate(0.000000,720.000000) scale(0.100000,-0.100000)"
fill="#000000" stroke="none">
<path d="M4211 5575 c-16 -14 -42 -50 -57 -80 -24 -50 -26 -63 -23 -152 2 -54
2 -134 1 -178 l-2 -80 -35 52 c-41 61 -98 103 -138 103 -25 0 -27 -3 -21 -22
24 -81 77 -134 167 -168 38 -14 40 -18 62 -92 12 -43 20 -78 19 -78 -2 0 -24
16 -49 35 -43 32 -142 71 -153 60 -11 -11 32 -85 72 -124 22 -22 77 -60 121
-83 l80 -43 37 -90 c44 -104 83 -224 75 -231 -2 -3 -15 11 -27 31 -29 48 -95
95 -132 95 -33 0 -34 -8 -9 -58 33 -64 118 -132 166 -132 8 0 20 -11 25 -25
15 -39 23 -224 12 -287 -5 -32 -6 -58 -2 -58 15 0 22 36 27 126 l6 91 64 12
c36 7 85 21 110 33 45 21 88 72 76 91 -8 13 -108 0 -143 -18 -15 -8 -42 -26
-59 -41 -35 -29 -38 -26 -14 19 9 18 31 73 48 124 18 51 44 106 58 123 64 76
59 216 -10 292 -15 17 -17 17 -35 1 -27 -24 -48 -78 -48 -122 0 -20 11 -71 24
-115 24 -78 24 -79 7 -135 -20 -64 -82 -214 -86 -209 -2 2 -10 44 -19 94 -9
51 -30 131 -47 179 l-31 86 32 70 c38 83 50 173 27 204 -13 17 -17 18 -33 5
-28 -24 -54 -91 -54 -143 0 -27 -4 -46 -8 -43 -4 2 -25 47 -46 99 -38 95 -38
95 -18 115 46 46 95 242 60 242 -21 0 -63 -50 -77 -89 -6 -19 -11 -51 -11 -72
0 -65 -16 -44 -35 44 -11 54 -16 111 -13 161 l3 78 55 51 c77 74 100 111 100
164 0 59 -23 113 -49 113 -11 0 -33 -11 -50 -25z"/>
<path d="M3517 5460 c-14 -11 -38 -46 -54 -78 -33 -67 -37 -155 -11 -237 9
-27 19 -88 22 -135 3 -47 9 -96 12 -110 6 -21 -3 -15 -52 31 -71 67 -110 89
-160 89 -34 0 -36 -1 -29 -27 18 -73 125 -154 223 -169 39 -6 45 -11 60 -48 9
-22 28 -65 44 -94 27 -53 26 -54 -22 -22 -61 41 -221 79 -220 53 0 -5 16 -29
34 -54 45 -61 139 -121 242 -154 l83 -27 43 -72 c54 -87 148 -270 148 -287 0
-6 -23 11 -51 40 -62 61 -99 81 -151 81 -42 0 -47 -11 -21 -50 52 -79 102
-114 198 -140 l60 -15 17 -65 c28 -103 50 -245 46 -300 -2 -30 1 -49 7 -47 12
4 14 166 2 218 l-8 37 68 21 c81 25 167 73 187 104 8 12 18 35 22 51 l7 29
-49 -7 c-69 -11 -130 -43 -177 -96 -34 -38 -39 -41 -34 -20 3 14 17 75 31 135
14 61 26 119 26 131 0 11 11 35 24 53 68 92 51 246 -37 338 -34 36 -46 33 -74
-21 -29 -55 -20 -129 27 -236 36 -83 41 -101 36 -145 -5 -49 -53 -252 -63
-268 -3 -5 -21 38 -40 95 -19 57 -57 148 -85 203 l-50 100 21 65 c41 129 38
223 -9 265 -19 17 -20 16 -46 -39 -21 -47 -25 -68 -22 -125 2 -38 0 -67 -4
-65 -13 8 -118 189 -118 202 0 7 7 24 16 37 40 61 63 285 30 285 -45 0 -95
-129 -81 -210 9 -51 1 -51 -25 -1 -32 64 -63 191 -64 267 -1 68 0 72 39 119
76 92 95 127 95 175 0 70 -11 117 -32 139 -24 26 -48 27 -81 1z"/>
<path d="M2588 4441 c-42 -9 -79 -19 -82 -22 -3 -3 79 -86 184 -184 104 -98
190 -180 190 -182 0 -9 -49 25 -263 181 -226 165 -228 166 -270 160 -88 -14
-128 23 538 -489 121 -93 283 -219 360 -280 174 -138 345 -267 345 -261 0 20
-211 374 -307 514 -154 225 -279 368 -418 477 -146 114 -145 114 -277 86z"/>
<path d="M5029 3937 c-157 -111 -445 -314 -640 -451 -195 -138 -412 -292 -484
-343 -71 -51 -150 -99 -174 -108 -55 -19 -136 -19 -187 -1 -22 7 -149 86 -284
174 -277 182 -461 302 -700 457 -426 278 -657 429 -682 447 l-27 19 -25 -38
c-15 -21 -26 -43 -26 -49 0 -7 37 -36 82 -65 46 -29 173 -112 283 -184 110
-73 238 -156 285 -187 47 -30 166 -108 265 -173 99 -65 284 -186 410 -268 127
-82 237 -159 245 -171 74 -107 178 -172 275 -170 98 1 208 72 260 166 10 19
52 57 97 88 105 73 179 126 453 322 171 122 906 645 934 664 7 5 -52 74 -63
73 -6 0 -140 -92 -297 -202z"/>
<path d="M2840 2340 l0 -200 140 0 140 0 0 35 0 35 -95 0 -95 0 0 165 0 165
-45 0 -45 0 0 -200z"/>
<path d="M3255 2439 c-86 -27 -130 -131 -90 -208 46 -89 177 -118 260 -57 20
14 20 15 -3 39 -22 23 -26 24 -50 11 -44 -23 -102 -13 -124 20 -16 23 -5 26
102 26 l110 0 0 35 c0 98 -105 167 -205 134z"/>
<path d="M3557 2436 c-51 -19 -52 -20 -37 -55 12 -29 12 -29 46 -15 43 18 74
18 102 -2 38 -26 28 -44 -25 -44 -80 0 -122 -17 -140 -55 -14 -29 -14 -38 -3
-66 22 -53 104 -75 164 -44 35 18 36 18 36 0 0 -11 11 -15 41 -15 l42 0 -5
113 c-3 62 -10 122 -16 134 -28 52 -131 77 -205 49z"/>
<path d="M3860 2295 l0 -155 45 0 45 0 0 95 c0 108 14 135 70 135 28 0 30 3
30 35 0 46 -19 53 -70 27 -39 -19 -40 -19 -40 -1 0 15 -8 19 -40 19 l-40 0 0
-155z"/>
<path d="M4100 2295 l0 -155 45 0 45 0 0 98 c0 85 3 101 20 120 24 26 57 28
88 6 20 -14 22 -23 22 -120 l0 -104 46 0 46 0 -3 114 c-5 131 -18 160 -84 185
-36 14 -71 10 -127 -14 -13 -5 -18 -3 -18 9 0 12 -10 16 -40 16 l-40 0 0 -155z"/>
<path d="M2140 1735 l0 -135 25 0 c24 0 25 3 25 58 0 71 15 95 55 90 30 -3 30
-3 33 -75 l3 -73 30 0 31 0 -4 80 c-2 58 -8 84 -20 97 -19 18 -80 23 -110 9
-16 -7 -18 -2 -18 38 0 42 -2 46 -25 46 l-25 0 0 -135z"/>
<path d="M4080 1825 c0 -42 -2 -45 -19 -35 -34 17 -69 11 -102 -18 -61 -54
-33 -153 47 -168 18 -3 42 -1 55 7 17 9 24 9 27 0 2 -6 15 -11 28 -11 l24 0 0
135 0 135 -30 0 c-29 0 -30 -2 -30 -45z"/>
<path d="M5040 1735 l0 -135 25 0 c24 0 25 3 25 58 0 71 15 95 55 90 30 -3 30
-3 33 -75 l3 -73 30 0 31 0 -4 80 c-2 58 -8 84 -20 97 -19 18 -80 23 -110 9
-16 -7 -18 -2 -18 38 0 42 -2 46 -25 46 l-25 0 0 -135z"/>
<path d="M1870 1731 l0 -131 30 0 c28 0 30 2 30 41 0 22 4 38 9 35 20 -13 106
8 128 30 33 33 32 92 -3 125 -22 21 -37 24 -110 28 l-84 3 0 -131z"/>
<path d="M4300 1730 l0 -130 31 0 31 0 -4 70 c-2 39 -1 70 2 70 3 0 21 -25 39
-55 18 -30 39 -55 46 -55 8 0 31 28 52 63 l38 62 3 -77 c3 -75 4 -78 27 -78
l25 0 0 130 c0 128 0 130 -23 130 -17 0 -33 -18 -70 -80 -27 -44 -49 -80 -51
-80 -2 0 -24 36 -50 80 -38 66 -51 80 -71 80 l-25 0 0 -130z"/>
<path d="M4890 1820 c0 -13 -7 -20 -20 -20 -12 0 -20 -7 -20 -18 0 -9 9 -23
20 -30 16 -10 20 -23 20 -67 0 -44 4 -57 22 -69 39 -27 95 -16 82 17 -3 9 -15
17 -27 19 -18 3 -22 11 -25 50 -3 42 -1 47 20 50 15 2 24 11 26 26 3 18 -1 22
-22 22 -19 0 -26 5 -26 20 0 15 -7 20 -25 20 -18 0 -25 -5 -25 -20z"/>
<path d="M2379 1777 c5 -13 23 -54 40 -91 17 -38 31 -75 31 -82 0 -17 -30 -33
-49 -26 -12 4 -30 -13 -31 -30 0 -16 70 -20 94 -5 19 13 78 130 124 245 3 10
-3 13 -23 10 -23 -3 -31 -12 -53 -65 -14 -34 -28 -60 -32 -58 -4 3 -18 32 -30
65 -20 54 -25 60 -51 60 -26 0 -28 -2 -20 -23z"/>
<path d="M2643 1790 c-65 -26 -44 -94 32 -105 30 -5 45 -12 45 -22 0 -13 -11
-15 -55 -11 -42 4 -55 1 -60 -10 -10 -26 13 -36 76 -37 52 0 63 3 80 24 10 13
19 27 19 32 0 20 -40 47 -79 54 -27 4 -41 12 -41 22 0 11 11 14 46 12 35 -2
48 1 55 14 8 14 5 19 -16 27 -32 12 -72 12 -102 0z"/>
<path d="M2985 1793 c-30 -8 -63 -42 -70 -73 -14 -65 47 -125 119 -116 21 2
48 13 59 24 19 20 19 20 -3 32 -16 9 -25 9 -33 1 -15 -15 -60 -14 -75 1 -15
15 -15 61 0 76 15 15 60 16 75 1 8 -8 17 -8 33 1 22 12 22 12 3 31 -20 20 -74
31 -108 22z"/>
<path d="M3169 1785 c-60 -32 -39 -89 36 -100 30 -5 45 -12 45 -22 0 -13 -11
-15 -55 -11 -50 4 -65 -2 -65 -27 0 -12 83 -27 114 -21 45 9 73 45 57 75 -10
18 -65 41 -98 41 -7 0 -13 7 -13 16 0 12 10 15 48 13 41 -3 47 -1 50 17 5 34
-70 46 -119 19z"/>
<path d="M3480 1791 c-16 -4 -25 -14 -25 -26 0 -17 6 -19 46 -17 30 2 49 -2
57 -11 10 -12 4 -15 -38 -19 -59 -6 -80 -21 -80 -59 0 -43 40 -66 91 -52 21 6
39 6 39 2 0 -5 11 -9 25 -9 24 0 25 2 25 69 0 85 -5 98 -41 116 -30 16 -58 17
-99 6z"/>
<path d="M3680 1700 l0 -100 25 0 c24 0 25 3 25 58 0 71 15 95 55 90 30 -3 30
-3 33 -75 l3 -73 29 0 30 0 0 68 c0 37 -6 78 -13 92 -16 32 -68 47 -104 31
-19 -9 -29 -9 -31 -2 -2 6 -15 11 -28 11 -24 0 -24 -1 -24 -100z"/>
<path d="M4680 1792 c-15 -5 -25 -15 -25 -27 0 -17 6 -19 46 -17 32 2 49 -1
58 -12 12 -14 8 -16 -31 -16 -56 0 -88 -22 -88 -60 0 -44 40 -67 91 -53 21 6
39 6 39 2 0 -5 11 -9 25 -9 24 0 25 2 25 74 0 90 -16 115 -75 121 -22 2 -51 1
-65 -3z"/>
</g>
</svg>
